<svg xmlns="http://www.w3.org/2000/svg" xmlns:xlink="http://www.w3.org/1999/xlink" width="531" zoomAndPan="magnify" viewBox="0 0 398.25 229.499994" height="306" preserveAspectRatio="xMidYMid meet" version="1.0"><defs><g/></defs><path fill="#7b49ba" d="M 49.585938 163.761719 C 55.667969 150.132812 56.976562 133.148438 49.914062 119.484375 C 43.347656 106.785156 32.339844 97.765625 24.867188 85.757812 C 15.945312 71.421875 14.992188 52.273438 24.867188 38.226562 C 32.957031 26.726562 45.324219 18.734375 56.175781 10.007812 C 44.792969 27.917969 23.570312 42.617188 28.808594 66.421875 C 32.929688 84.128906 48.484375 95.203125 56.078125 111.238281 C 55.992188 111.078125 55.90625 110.921875 55.816406 110.757812 C 64.292969 127.5625 62.835938 149.71875 49.585938 163.761719 C 50.042969 162.738281 50.355469 162.949219 49.585938 163.761719 Z M 49.585938 163.761719 " fill-opacity="1" fill-rule="nonzero"/><path fill="#ff66c4" d="M 37.871094 169.253906 C 38.648438 160.742188 37.863281 152.132812 34.75 144.105469 C 34.816406 144.296875 34.886719 144.484375 34.957031 144.679688 C 30.800781 137.691406 23.175781 134.714844 17.511719 129.207031 C 17.617188 129.304688 17.722656 129.398438 17.820312 129.492188 C 11.417969 123.71875 6.402344 117.753906 3.113281 109.660156 C 0.0234375 99.289062 1.066406 88.886719 6.019531 79.199219 C 7.128906 90.65625 7.34375 101.507812 14.894531 110.949219 C 19.222656 116.363281 24.53125 121.300781 30.054688 125.496094 C 35.753906 129.832031 42.042969 135.132812 43.355469 142.628906 C 44.894531 151.449219 43.382812 161.964844 37.871094 169.253906 C 37.925781 168.679688 38.21875 168.792969 37.871094 169.253906 Z M 37.871094 169.253906 " fill-opacity="1" fill-rule="nonzero"/><g fill="#ff66c4" fill-opacity="1"><g transform="translate(81.942932, 162.172589)"><g><path d="M 21.796875 0.59375 C 19.273438 0.59375 17.003906 0.460938 14.984375 0.203125 C 12.960938 -0.0546875 11.226562 -0.320312 9.78125 -0.59375 C 8.257812 -0.914062 7 -1.675781 6 -2.875 C 5 -4.082031 4.5 -5.484375 4.5 -7.078125 L 4.5 -38.609375 C 4.5 -39.804688 4.847656 -40.773438 5.546875 -41.515625 C 6.253906 -42.265625 7.304688 -42.640625 8.703125 -42.640625 C 10.109375 -42.640625 11.160156 -42.265625 11.859375 -41.515625 C 12.554688 -40.773438 12.90625 -39.804688 12.90625 -38.609375 L 12.90625 -8.640625 C 12.90625 -8.203125 13.046875 -7.8125 13.328125 -7.46875 C 13.609375 -7.132812 13.96875 -6.925781 14.40625 -6.84375 C 15.332031 -6.6875 16.394531 -6.535156 17.59375 -6.390625 C 18.789062 -6.253906 20.050781 -6.1875 21.375 -6.1875 C 24.0625 -6.1875 26.40625 -6.34375 28.40625 -6.65625 C 30.40625 -6.976562 32.207031 -7.320312 33.8125 -7.6875 C 34.125 -7.769531 34.382812 -7.8125 34.59375 -7.8125 C 35.507812 -7.8125 36.316406 -7.5 37.015625 -6.875 C 37.710938 -6.25 38.0625 -5.421875 38.0625 -4.390625 C 38.0625 -3.628906 37.8125 -2.9375 37.3125 -2.3125 C 36.8125 -1.6875 36.179688 -1.253906 35.421875 -1.015625 C 34.066406 -0.617188 32.273438 -0.253906 30.046875 0.078125 C 27.828125 0.421875 25.078125 0.59375 21.796875 0.59375 Z M 21.796875 0.59375 "/></g></g></g><g fill="#ff66c4" fill-opacity="1"><g transform="translate(121.923189, 162.172589)"><g><path d="M 29.125 0.59375 C 27.757812 0.59375 26.742188 0.234375 26.078125 -0.484375 C 25.421875 -1.203125 25.09375 -2.140625 25.09375 -3.296875 L 25.09375 -4.4375 C 23.976562 -2.914062 22.519531 -1.695312 20.71875 -0.78125 C 18.914062 0.132812 16.773438 0.59375 14.296875 0.59375 C 10.734375 0.59375 7.890625 -0.222656 5.765625 -1.859375 C 3.640625 -3.503906 2.578125 -5.90625 2.578125 -9.0625 C 2.578125 -10.863281 3.003906 -12.515625 3.859375 -14.015625 C 4.722656 -15.515625 6.078125 -16.707031 7.921875 -17.59375 C 9.765625 -18.476562 12.109375 -18.921875 14.953125 -18.921875 C 16.835938 -18.921875 18.648438 -18.675781 20.390625 -18.1875 C 22.128906 -17.707031 23.695312 -17.066406 25.09375 -16.265625 L 25.09375 -18.671875 C 25.09375 -20.554688 24.332031 -22.066406 22.8125 -23.203125 C 21.289062 -24.347656 19.09375 -24.921875 16.21875 -24.921875 C 14.769531 -24.921875 13.484375 -24.800781 12.359375 -24.5625 C 11.242188 -24.320312 9.988281 -23.941406 8.59375 -23.421875 C 8.226562 -23.253906 7.847656 -23.171875 7.453125 -23.171875 C 6.242188 -23.171875 5.398438 -23.832031 4.921875 -25.15625 C 4.804688 -25.519531 4.75 -25.898438 4.75 -26.296875 C 4.75 -27.460938 5.390625 -28.285156 6.671875 -28.765625 C 8.585938 -29.441406 10.328125 -29.921875 11.890625 -30.203125 C 13.453125 -30.484375 15.289062 -30.625 17.40625 -30.625 C 22.414062 -30.625 26.300781 -29.628906 29.0625 -27.640625 C 31.820312 -25.660156 33.203125 -22.648438 33.203125 -18.609375 L 33.203125 -3.296875 C 33.203125 -2.140625 32.867188 -1.203125 32.203125 -0.484375 C 31.546875 0.234375 30.519531 0.59375 29.125 0.59375 Z M 10.6875 -9.609375 C 10.6875 -8.203125 11.296875 -7.097656 12.515625 -6.296875 C 13.734375 -5.503906 15.347656 -5.109375 17.359375 -5.109375 C 19.679688 -5.109375 21.476562 -5.773438 22.75 -7.109375 C 24.03125 -8.453125 24.796875 -9.984375 25.046875 -11.703125 C 23.960938 -12.390625 22.757812 -12.960938 21.4375 -13.421875 C 20.113281 -13.878906 18.710938 -14.109375 17.234375 -14.109375 C 14.867188 -14.109375 13.1875 -13.664062 12.1875 -12.78125 C 11.1875 -11.90625 10.6875 -10.847656 10.6875 -9.609375 Z M 10.6875 -9.609375 "/></g></g></g><g fill="#ff66c4" fill-opacity="1"><g transform="translate(159.622297, 162.172589)"><g><path d="M 17.53125 0.59375 C 9.601562 0.59375 5.640625 -3.347656 5.640625 -11.234375 L 5.640625 -23.65625 L 3.25 -23.65625 C 2.363281 -23.65625 1.597656 -23.960938 0.953125 -24.578125 C 0.316406 -25.203125 0 -25.957031 0 -26.84375 C 0 -27.757812 0.316406 -28.523438 0.953125 -29.140625 C 1.597656 -29.765625 2.363281 -30.078125 3.25 -30.078125 L 5.640625 -30.078125 L 5.640625 -32.671875 C 5.640625 -33.828125 5.976562 -34.765625 6.65625 -35.484375 C 7.34375 -36.203125 8.367188 -36.5625 9.734375 -36.5625 C 11.085938 -36.5625 12.09375 -36.203125 12.75 -35.484375 C 13.414062 -34.765625 13.75 -33.828125 13.75 -32.671875 L 13.75 -30.078125 L 18.921875 -30.078125 C 19.835938 -30.078125 20.601562 -29.765625 21.21875 -29.140625 C 21.84375 -28.523438 22.15625 -27.757812 22.15625 -26.84375 C 22.15625 -25.957031 21.84375 -25.203125 21.21875 -24.578125 C 20.601562 -23.960938 19.835938 -23.65625 18.921875 -23.65625 L 13.75 -23.65625 L 13.8125 -11.40625 C 13.8125 -9.53125 14.257812 -8.148438 15.15625 -7.265625 C 16.0625 -6.378906 17.253906 -5.9375 18.734375 -5.9375 C 20.972656 -5.9375 22.09375 -4.898438 22.09375 -2.828125 C 22.09375 -1.703125 21.679688 -0.847656 20.859375 -0.265625 C 20.046875 0.304688 18.9375 0.59375 17.53125 0.59375 Z M 17.53125 0.59375 "/></g></g></g><g fill="#ff66c4" fill-opacity="1"><g transform="translate(182.974121, 162.172589)"><g><path d="M 17.53125 0.59375 C 9.601562 0.59375 5.640625 -3.347656 5.640625 -11.234375 L 5.640625 -23.65625 L 3.25 -23.65625 C 2.363281 -23.65625 1.597656 -23.960938 0.953125 -24.578125 C 0.316406 -25.203125 0 -25.957031 0 -26.84375 C 0 -27.757812 0.316406 -28.523438 0.953125 -29.140625 C 1.597656 -29.765625 2.363281 -30.078125 3.25 -30.078125 L 5.640625 -30.078125 L 5.640625 -32.671875 C 5.640625 -33.828125 5.976562 -34.765625 6.65625 -35.484375 C 7.34375 -36.203125 8.367188 -36.5625 9.734375 -36.5625 C 11.085938 -36.5625 12.09375 -36.203125 12.75 -35.484375 C 13.414062 -34.765625 13.75 -33.828125 13.75 -32.671875 L 13.75 -30.078125 L 18.921875 -30.078125 C 19.835938 -30.078125 20.601562 -29.765625 21.21875 -29.140625 C 21.84375 -28.523438 22.15625 -27.757812 22.15625 -26.84375 C 22.15625 -25.957031 21.84375 -25.203125 21.21875 -24.578125 C 20.601562 -23.960938 19.835938 -23.65625 18.921875 -23.65625 L 13.75 -23.65625 L 13.8125 -11.40625 C 13.8125 -9.53125 14.257812 -8.148438 15.15625 -7.265625 C 16.0625 -6.378906 17.253906 -5.9375 18.734375 -5.9375 C 20.972656 -5.9375 22.09375 -4.898438 22.09375 -2.828125 C 22.09375 -1.703125 21.679688 -0.847656 20.859375 -0.265625 C 20.046875 0.304688 18.9375 0.59375 17.53125 0.59375 Z M 17.53125 0.59375 "/></g></g></g><g fill="#ff66c4" fill-opacity="1"><g transform="translate(206.325945, 162.172589)"><g><path d="M 19.703125 0.59375 C 15.972656 0.59375 12.828125 -0.0625 10.265625 -1.375 C 7.703125 -2.695312 5.769531 -4.550781 4.46875 -6.9375 C 3.164062 -9.320312 2.515625 -12.070312 2.515625 -15.1875 C 2.515625 -18.195312 3.066406 -20.859375 4.171875 -23.171875 C 5.273438 -25.492188 6.976562 -27.316406 9.28125 -28.640625 C 11.582031 -29.960938 14.515625 -30.625 18.078125 -30.625 C 21.554688 -30.625 24.363281 -30.160156 26.5 -29.234375 C 28.644531 -28.316406 30.207031 -27.097656 31.1875 -25.578125 C 32.175781 -24.054688 32.671875 -22.394531 32.671875 -20.59375 C 32.671875 -17.875 31.695312 -15.679688 29.75 -14.015625 C 27.8125 -12.359375 25.0625 -11.53125 21.5 -11.53125 C 17.375 -11.53125 13.769531 -12.3125 10.6875 -13.875 C 11.007812 -11.144531 12.128906 -9 14.046875 -7.4375 C 15.972656 -5.882812 18.394531 -5.109375 21.3125 -5.109375 C 22.71875 -5.109375 23.957031 -5.273438 25.03125 -5.609375 C 26.113281 -5.953125 27.175781 -6.382812 28.21875 -6.90625 C 28.695312 -7.144531 29.175781 -7.265625 29.65625 -7.265625 C 30.539062 -7.265625 31.265625 -6.882812 31.828125 -6.125 C 32.148438 -5.601562 32.3125 -5.0625 32.3125 -4.5 C 32.3125 -4.101562 32.226562 -3.703125 32.0625 -3.296875 C 31.90625 -2.898438 31.644531 -2.5625 31.28125 -2.28125 C 29.039062 -0.363281 25.179688 0.59375 19.703125 0.59375 Z M 11.109375 -19.03125 C 12.429688 -18.351562 13.789062 -17.832031 15.1875 -17.46875 C 16.59375 -17.113281 18.097656 -16.9375 19.703125 -16.9375 C 21.734375 -16.9375 23.226562 -17.304688 24.1875 -18.046875 C 25.15625 -18.785156 25.640625 -19.695312 25.640625 -20.78125 C 25.640625 -21.976562 25.054688 -22.96875 23.890625 -23.75 C 22.734375 -24.53125 21.054688 -24.921875 18.859375 -24.921875 C 16.816406 -24.921875 15.144531 -24.398438 13.84375 -23.359375 C 12.539062 -22.316406 11.628906 -20.875 11.109375 -19.03125 Z M 11.109375 -19.03125 "/></g></g></g><g fill="#6d67e4" fill-opacity="1"><g transform="translate(81.942932, 100.86381)"><g><path d="M 21.5 0.59375 C 18.851562 0.59375 16 0.296875 12.9375 -0.296875 C 9.875 -0.898438 6.78125 -1.921875 3.65625 -3.359375 C 3.0625 -3.679688 2.59375 -4.128906 2.25 -4.703125 C 1.90625 -5.285156 1.734375 -5.898438 1.734375 -6.546875 C 1.734375 -7.109375 1.875 -7.648438 2.15625 -8.171875 C 2.476562 -8.804688 2.9375 -9.289062 3.53125 -9.625 C 4.132812 -9.96875 4.757812 -10.140625 5.40625 -10.140625 C 6.039062 -10.140625 6.582031 -10.003906 7.03125 -9.734375 C 9.507812 -8.453125 11.9375 -7.539062 14.3125 -7 C 16.695312 -6.457031 19.410156 -6.1875 22.453125 -6.1875 C 25.535156 -6.1875 27.847656 -6.625 29.390625 -7.5 C 30.929688 -8.382812 31.703125 -9.609375 31.703125 -11.171875 C 31.703125 -12.566406 31.117188 -13.710938 29.953125 -14.609375 C 28.796875 -15.515625 26.976562 -16.289062 24.5 -16.9375 L 12.84375 -20 C 10.125 -20.757812 7.832031 -22.03125 5.96875 -23.8125 C 4.113281 -25.59375 3.1875 -27.863281 3.1875 -30.625 C 3.1875 -34.425781 4.675781 -37.378906 7.65625 -39.484375 C 10.632812 -41.585938 15.1875 -42.640625 21.3125 -42.640625 C 24.039062 -42.640625 26.644531 -42.304688 29.125 -41.640625 C 31.601562 -40.984375 34.023438 -40.070312 36.390625 -38.90625 C 37.785156 -38.226562 38.484375 -37.148438 38.484375 -35.671875 C 38.484375 -34.546875 38.125 -33.648438 37.40625 -32.984375 C 36.6875 -32.328125 35.867188 -32 34.953125 -32 C 34.390625 -32 33.867188 -32.117188 33.390625 -32.359375 C 31.503906 -33.285156 29.550781 -34.109375 27.53125 -34.828125 C 25.507812 -35.546875 23.019531 -35.90625 20.0625 -35.90625 C 14.414062 -35.90625 11.59375 -34.40625 11.59375 -31.40625 C 11.59375 -30.207031 12.082031 -29.265625 13.0625 -28.578125 C 14.039062 -27.898438 15.691406 -27.28125 18.015625 -26.71875 L 29.25 -23.90625 C 33.125 -22.894531 36.019531 -21.507812 37.9375 -19.75 C 39.863281 -17.988281 40.828125 -15.566406 40.828125 -12.484375 C 40.828125 -8.328125 39.242188 -5.109375 36.078125 -2.828125 C 32.921875 -0.546875 28.0625 0.59375 21.5 0.59375 Z M 21.5 0.59375 "/></g></g></g><g fill="#6d67e4" fill-opacity="1"><g transform="translate(125.351707, 100.86381)"><g><path d="M 8.59375 12.609375 C 7.226562 12.609375 6.203125 12.175781 5.515625 11.3125 C 4.835938 10.457031 4.5 9.507812 4.5 8.46875 L 4.5625 -16.8125 C 4.519531 -21.050781 5.820312 -24.421875 8.46875 -26.921875 C 11.113281 -29.429688 15.132812 -30.6875 20.53125 -30.6875 C 23.695312 -30.6875 26.476562 -30.035156 28.875 -28.734375 C 31.28125 -27.429688 33.171875 -25.609375 34.546875 -23.265625 C 35.929688 -20.921875 36.625 -18.171875 36.625 -15.015625 C 36.625 -11.847656 36.039062 -9.09375 34.875 -6.75 C 33.71875 -4.414062 32.066406 -2.609375 29.921875 -1.328125 C 27.785156 -0.046875 25.257812 0.59375 22.34375 0.59375 C 20.257812 0.59375 18.40625 0.285156 16.78125 -0.328125 C 15.15625 -0.953125 13.765625 -1.765625 12.609375 -2.765625 L 12.609375 8.703125 C 12.609375 9.703125 12.296875 10.601562 11.671875 11.40625 C 11.054688 12.207031 10.03125 12.609375 8.59375 12.609375 Z M 12.609375 -9.0625 C 14.410156 -6.945312 16.851562 -5.890625 19.9375 -5.890625 C 22.414062 -5.890625 24.460938 -6.71875 26.078125 -8.375 C 27.703125 -10.039062 28.515625 -12.273438 28.515625 -15.078125 C 28.515625 -17.878906 27.722656 -20.097656 26.140625 -21.734375 C 24.566406 -23.378906 22.597656 -24.203125 20.234375 -24.203125 C 17.796875 -24.203125 15.914062 -23.550781 14.59375 -22.25 C 13.269531 -20.945312 12.609375 -19.210938 12.609375 -17.046875 Z M 12.609375 -9.0625 "/></g></g></g><g fill="#6d67e4" fill-opacity="1"><g transform="translate(164.557711, 100.86381)"><g><path d="M 29.125 0.59375 C 27.757812 0.59375 26.742188 0.234375 26.078125 -0.484375 C 25.421875 -1.203125 25.09375 -2.140625 25.09375 -3.296875 L 25.09375 -4.4375 C 23.976562 -2.914062 22.519531 -1.695312 20.71875 -0.78125 C 18.914062 0.132812 16.773438 0.59375 14.296875 0.59375 C 10.734375 0.59375 7.890625 -0.222656 5.765625 -1.859375 C 3.640625 -3.503906 2.578125 -5.90625 2.578125 -9.0625 C 2.578125 -10.863281 3.003906 -12.515625 3.859375 -14.015625 C 4.722656 -15.515625 6.078125 -16.707031 7.921875 -17.59375 C 9.765625 -18.476562 12.109375 -18.921875 14.953125 -18.921875 C 16.835938 -18.921875 18.648438 -18.675781 20.390625 -18.1875 C 22.128906 -17.707031 23.695312 -17.066406 25.09375 -16.265625 L 25.09375 -18.671875 C 25.09375 -20.554688 24.332031 -22.066406 22.8125 -23.203125 C 21.289062 -24.347656 19.09375 -24.921875 16.21875 -24.921875 C 14.769531 -24.921875 13.484375 -24.800781 12.359375 -24.5625 C 11.242188 -24.320312 9.988281 -23.941406 8.59375 -23.421875 C 8.226562 -23.253906 7.847656 -23.171875 7.453125 -23.171875 C 6.242188 -23.171875 5.398438 -23.832031 4.921875 -25.15625 C 4.804688 -25.519531 4.75 -25.898438 4.75 -26.296875 C 4.75 -27.460938 5.390625 -28.285156 6.671875 -28.765625 C 8.585938 -29.441406 10.328125 -29.921875 11.890625 -30.203125 C 13.453125 -30.484375 15.289062 -30.625 17.40625 -30.625 C 22.414062 -30.625 26.300781 -29.628906 29.0625 -27.640625 C 31.820312 -25.660156 33.203125 -22.648438 33.203125 -18.609375 L 33.203125 -3.296875 C 33.203125 -2.140625 32.867188 -1.203125 32.203125 -0.484375 C 31.546875 0.234375 30.519531 0.59375 29.125 0.59375 Z M 10.6875 -9.609375 C 10.6875 -8.203125 11.296875 -7.097656 12.515625 -6.296875 C 13.734375 -5.503906 15.347656 -5.109375 17.359375 -5.109375 C 19.679688 -5.109375 21.476562 -5.773438 22.75 -7.109375 C 24.03125 -8.453125 24.796875 -9.984375 25.046875 -11.703125 C 23.960938 -12.390625 22.757812 -12.960938 21.4375 -13.421875 C 20.113281 -13.878906 18.710938 -14.109375 17.234375 -14.109375 C 14.867188 -14.109375 13.1875 -13.664062 12.1875 -12.78125 C 11.1875 -11.90625 10.6875 -10.847656 10.6875 -9.609375 Z M 10.6875 -9.609375 "/></g></g></g><g fill="#6d67e4" fill-opacity="1"><g transform="translate(202.262707, 100.86381)"><g><path d="M 10.921875 0.234375 C 10.648438 0.359375 10.375 0.457031 10.09375 0.53125 C 9.8125 0.613281 9.507812 0.65625 9.1875 0.65625 C 8.425781 0.65625 7.710938 0.445312 7.046875 0.03125 C 6.390625 -0.382812 5.882812 -0.957031 5.53125 -1.6875 C 4.882812 -3.445312 4.378906 -5.4375 4.015625 -7.65625 C 3.660156 -9.875 3.484375 -12.085938 3.484375 -14.296875 C 3.484375 -19.253906 4.894531 -23.210938 7.71875 -26.171875 C 10.539062 -29.140625 14.734375 -30.625 20.296875 -30.625 C 25.859375 -30.625 30.050781 -29.140625 32.875 -26.171875 C 35.695312 -23.210938 37.109375 -19.253906 37.109375 -14.296875 C 37.109375 -12.085938 36.914062 -9.875 36.53125 -7.65625 C 36.15625 -5.4375 35.644531 -3.445312 35 -1.6875 C 34.644531 -0.957031 34.132812 -0.382812 33.46875 0.03125 C 32.8125 0.445312 32.101562 0.65625 31.34375 0.65625 C 31.0625 0.65625 30.78125 0.613281 30.5 0.53125 C 30.21875 0.457031 29.921875 0.359375 29.609375 0.234375 C 28.878906 -0.117188 28.304688 -0.585938 27.890625 -1.171875 C 27.472656 -1.753906 27.265625 -2.425781 27.265625 -3.1875 C 27.265625 -3.78125 27.421875 -4.457031 27.734375 -5.21875 C 28.097656 -6.5 28.398438 -7.957031 28.640625 -9.59375 C 28.878906 -11.238281 29 -12.90625 29 -14.59375 C 29 -17.507812 28.285156 -19.835938 26.859375 -21.578125 C 25.441406 -23.328125 23.253906 -24.203125 20.296875 -24.203125 C 17.335938 -24.203125 15.144531 -23.328125 13.71875 -21.578125 C 12.300781 -19.835938 11.59375 -17.507812 11.59375 -14.59375 C 11.59375 -12.90625 11.703125 -11.238281 11.921875 -9.59375 C 12.140625 -7.957031 12.445312 -6.5 12.84375 -5.21875 C 13.125 -4.539062 13.265625 -3.882812 13.265625 -3.25 C 13.265625 -2.488281 13.054688 -1.804688 12.640625 -1.203125 C 12.222656 -0.597656 11.648438 -0.117188 10.921875 0.234375 Z M 10.921875 0.234375 "/></g></g></g><g fill="#6d67e4" fill-opacity="1"><g transform="translate(242.789571, 100.86381)"><g><path d="M 8.59375 0.59375 C 7.226562 0.59375 6.203125 0.234375 5.515625 -0.484375 C 4.835938 -1.203125 4.5 -2.140625 4.5 -3.296875 L 4.5 -26.71875 C 4.5 -27.882812 4.835938 -28.828125 5.515625 -29.546875 C 6.203125 -30.265625 7.226562 -30.625 8.59375 -30.625 C 9.945312 -30.625 10.953125 -30.265625 11.609375 -29.546875 C 12.273438 -28.828125 12.609375 -27.882812 12.609375 -26.71875 L 12.609375 -3.296875 C 12.609375 -2.140625 12.273438 -1.203125 11.609375 -0.484375 C 10.953125 0.234375 9.945312 0.59375 8.59375 0.59375 Z M 4.078125 -40.234375 C 4.078125 -41.472656 4.457031 -42.460938 5.21875 -43.203125 C 5.976562 -43.941406 7.101562 -44.3125 8.59375 -44.3125 C 10.113281 -44.3125 11.242188 -43.941406 11.984375 -43.203125 C 12.722656 -42.460938 13.09375 -41.472656 13.09375 -40.234375 C 13.09375 -39.035156 12.722656 -38.0625 11.984375 -37.3125 C 11.242188 -36.570312 10.113281 -36.203125 8.59375 -36.203125 C 7.101562 -36.203125 5.976562 -36.570312 5.21875 -37.3125 C 4.457031 -38.0625 4.078125 -39.035156 4.078125 -40.234375 Z M 4.078125 -40.234375 "/></g></g></g><g fill="#6d67e4" fill-opacity="1"><g transform="translate(259.900925, 100.86381)"><g><path d="M 17.234375 0.59375 C 14.546875 0.59375 12.191406 0.394531 10.171875 0 C 8.148438 -0.394531 6.203125 -1.035156 4.328125 -1.921875 C 3.765625 -2.203125 3.300781 -2.570312 2.9375 -3.03125 C 2.582031 -3.488281 2.40625 -4 2.40625 -4.5625 C 2.40625 -4.84375 2.460938 -5.164062 2.578125 -5.53125 C 2.773438 -6.207031 3.113281 -6.710938 3.59375 -7.046875 C 4.082031 -7.390625 4.585938 -7.5625 5.109375 -7.5625 C 5.421875 -7.5625 5.757812 -7.503906 6.125 -7.390625 C 8.25 -6.628906 10.171875 -6.054688 11.890625 -5.671875 C 13.609375 -5.296875 15.390625 -5.109375 17.234375 -5.109375 C 19.234375 -5.109375 20.742188 -5.40625 21.765625 -6 C 22.785156 -6.601562 23.296875 -7.40625 23.296875 -8.40625 C 23.296875 -10.007812 22.097656 -11.050781 19.703125 -11.53125 L 12.84375 -12.96875 C 10.125 -13.53125 7.941406 -14.453125 6.296875 -15.734375 C 4.660156 -17.015625 3.84375 -19.015625 3.84375 -21.734375 C 3.84375 -24.335938 4.882812 -26.46875 6.96875 -28.125 C 9.050781 -29.789062 12.429688 -30.625 17.109375 -30.625 C 19.234375 -30.625 21.15625 -30.429688 22.875 -30.046875 C 24.59375 -29.671875 26.253906 -29.125 27.859375 -28.40625 C 29.097656 -27.84375 29.71875 -26.960938 29.71875 -25.765625 C 29.71875 -25.441406 29.660156 -25.097656 29.546875 -24.734375 C 29.378906 -24.210938 29.023438 -23.75 28.484375 -23.34375 C 27.953125 -22.945312 27.382812 -22.75 26.78125 -22.75 C 26.5 -22.75 26.195312 -22.8125 25.875 -22.9375 C 24.351562 -23.539062 22.875 -24.019531 21.4375 -24.375 C 20 -24.738281 18.554688 -24.921875 17.109375 -24.921875 C 15.234375 -24.921875 13.894531 -24.695312 13.09375 -24.25 C 12.289062 -23.8125 11.890625 -23.175781 11.890625 -22.34375 C 11.890625 -21.5 12.195312 -20.863281 12.8125 -20.4375 C 13.4375 -20.019531 14.25 -19.710938 15.25 -19.515625 L 22.09375 -18.015625 C 25.175781 -17.335938 27.488281 -16.285156 29.03125 -14.859375 C 30.570312 -13.441406 31.34375 -11.507812 31.34375 -9.0625 C 31.34375 -6.019531 30.226562 -3.648438 28 -1.953125 C 25.78125 -0.253906 22.191406 0.59375 17.234375 0.59375 Z M 17.234375 0.59375 "/></g></g></g><g fill="#6d67e4" fill-opacity="1"><g transform="translate(293.643305, 100.86381)"><g><path d="M 29.78125 0.421875 C 28.820312 0.0976562 28.117188 -0.390625 27.671875 -1.046875 C 27.234375 -1.710938 27.015625 -2.445312 27.015625 -3.25 C 27.015625 -3.519531 27.046875 -3.773438 27.109375 -4.015625 C 27.171875 -4.265625 27.222656 -4.523438 27.265625 -4.796875 C 27.578125 -6.285156 27.863281 -7.921875 28.125 -9.703125 C 28.382812 -11.484375 28.515625 -13.171875 28.515625 -14.765625 C 28.515625 -17.929688 27.785156 -20.296875 26.328125 -21.859375 C 24.867188 -23.421875 22.859375 -24.203125 20.296875 -24.203125 C 18.535156 -24.203125 17.015625 -23.820312 15.734375 -23.0625 C 14.453125 -22.300781 13.410156 -21.28125 12.609375 -20 L 12.609375 -3.296875 C 12.609375 -2.140625 12.273438 -1.203125 11.609375 -0.484375 C 10.953125 0.234375 9.945312 0.59375 8.59375 0.59375 C 7.226562 0.59375 6.203125 0.234375 5.515625 -0.484375 C 4.835938 -1.203125 4.5 -2.140625 4.5 -3.296875 L 4.5 -38.734375 C 4.5 -39.890625 4.835938 -40.828125 5.515625 -41.546875 C 6.203125 -42.273438 7.226562 -42.640625 8.59375 -42.640625 C 9.945312 -42.640625 10.953125 -42.273438 11.609375 -41.546875 C 12.273438 -40.828125 12.609375 -39.890625 12.609375 -38.734375 L 12.609375 -26.84375 C 13.890625 -28 15.390625 -28.914062 17.109375 -29.59375 C 18.835938 -30.28125 20.800781 -30.625 23 -30.625 C 27.476562 -30.625 30.867188 -29.3125 33.171875 -26.6875 C 35.472656 -24.0625 36.625 -20.085938 36.625 -14.765625 C 36.625 -12.722656 36.453125 -10.5625 36.109375 -8.28125 C 35.773438 -6 35.390625 -3.957031 34.953125 -2.15625 C 34.347656 -0.28125 33.101562 0.65625 31.21875 0.65625 C 30.976562 0.65625 30.738281 0.625 30.5 0.5625 C 30.257812 0.507812 30.019531 0.460938 29.78125 0.421875 Z M 29.78125 0.421875 "/></g></g></g></svg>